<svg xmlns="http://www.w3.org/2000/svg" version="1.1" xmlns:xlink="http://www.w3.org/1999/xlink" xmlns:svgjs="http://svgjs.dev/svgjs" width="1000" height="1000" viewBox="0 0 1000 1000"><rect width="1000" height="1000" fill="#ffffff"></rect><g transform="matrix(0.7,0,0,0.7,149.57576175708635,425.8790822647265)"><svg viewBox="0 0 396 84" data-background-color="#0c1d36" preserveAspectRatio="xMidYMid meet" height="212" width="1000" xmlns="http://www.w3.org/2000/svg" xmlns:xlink="http://www.w3.org/1999/xlink"><defs></defs><g id="tight-bounds" transform="matrix(1,0,0,1,0.23999763456257028,-0.04476354607157873)"><svg viewBox="0 0 395.5199999999999 84.08952709214313" height="84.08952709214313" width="395.5199999999999"><g><svg viewBox="0 0 627.7248975015075 133.45744785311942" height="84.08952709214313" width="395.5199999999999"><g><rect width="4.41643166397668" height="133.45744785311942" x="216.2271264030369" y="0" fill="#000000" opacity="1" stroke-width="0" stroke="transparent" fill-opacity="1" class="rect-o-0" data-fill-palette-color="primary" rx="1%" id="o-0" data-palette-color="#f9cc0b"></rect></g><g transform="matrix(1,0,0,1,232.2048975015075,0.33198370112715736)"><svg viewBox="0 0 395.52 132.7934804508651" height="132.7934804508651" width="395.52"><g><svg viewBox="0 0 395.52 132.7934804508651" height="132.7934804508651" width="395.52"><g><svg viewBox="0 0 395.52 105.9523886639676" height="105.9523886639676" width="395.52"><g transform="matrix(1,0,0,1,0,0)"><svg width="395.52" viewBox="2.000000476837158 -35.90000534057617 296.3999938964844 76.40000915527344" height="105.9523886639676" data-palette-color="#f9cc0b"><svg></svg><svg></svg><g class="undefined-text-0" data-fill-palette-color="primary" id="text-0"><path d="M12.1-15.7l-0.4-2 2.4 0.1c2.5 0 4.8-0.4 6.9-1.2v0c1.233-0.467 2.227-1.2 2.98-2.2 0.747-1 1.12-2.233 1.12-3.7v0c0-5.267-3.167-7.9-9.5-7.9v0l-5.2 0.2v28.8c0 0.467 0.033 0.833 0.1 1.1 0.067 0.267 0.283 0.517 0.65 0.75 0.367 0.233 0.917 0.35 1.65 0.35v0h1.9v1.4h-12.7v-1.4h1.6c0.733 0 1.283-0.117 1.65-0.35 0.367-0.233 0.583-0.483 0.65-0.75 0.067-0.267 0.1-0.633 0.1-1.1v0-27.7c0-0.767-0.157-1.327-0.47-1.68-0.32-0.347-0.963-0.52-1.93-0.52v0h-1.6v-1.5h7.7l9.5-0.5c3 0 5.417 0.65 7.25 1.95 1.833 1.3 2.75 3.123 2.75 5.47 0 2.353-0.54 4.403-1.62 6.15-1.087 1.753-2.43 3.063-4.03 3.93v0c-3.033 1.6-5.75 2.4-8.15 2.4v0c-1.4 0-2.5-0.033-3.3-0.1zM63.75-1.4v1.4h-12.8v-1.4h1.6c1.467 0 2.2-0.467 2.2-1.4v0c0-0.133-0.167-0.7-0.5-1.7v0l-3.4-8.9h-12.6l-3.3 8.5c0 0.067-0.117 0.473-0.35 1.22-0.233 0.753-0.35 1.27-0.35 1.55 0 0.287 0.183 0.48 0.55 0.58 0.367 0.1 1.15 0.15 2.35 0.15v0h0.8v1.4h-9.8v-1.4h0.7c1.1 0 1.9-0.193 2.4-0.58 0.5-0.38 0.933-1.02 1.3-1.92v0l11-28.7c0.167-0.033 0.467-0.277 0.9-0.73 0.433-0.447 0.833-0.913 1.2-1.4 0.367-0.48 0.55-0.753 0.55-0.82 0-0.067-0.017-0.117-0.05-0.15v0l0.7-0.2 12.3 32.2c0.367 0.767 0.743 1.34 1.13 1.72 0.38 0.387 0.937 0.58 1.67 0.58v0zM39.05-15.5h10.9l-5.4-14.3zM95.35 0.8v0l-22.1-29.6v25.1c0 1.467 1.033 2.2 3.1 2.2v0h1.9v1.5h-12v-1.5h1.6c2.067 0 3.1-0.733 3.1-2.2v0-27.6c0-1.467-1.033-2.2-3.1-2.2v0h-1.6v-1.5h7.9l20.6 27.7v-24c0-1.467-1-2.2-3-2.2v0h-1.7v-1.5h12v1.5h-1.9c-2.067 0-3.1 0.733-3.1 2.2v0 31.1c-0.367 0-0.757 0.16-1.17 0.48-0.42 0.313-0.597 0.487-0.53 0.52zM138.95-1.4v1.4h-12.8v-1.4h1.6c1.467 0 2.2-0.467 2.2-1.4v0c0-0.133-0.167-0.7-0.5-1.7v0l-3.4-8.9h-12.6l-3.3 8.5c0 0.067-0.117 0.473-0.35 1.22-0.233 0.753-0.35 1.27-0.35 1.55 0 0.287 0.183 0.48 0.55 0.58 0.367 0.1 1.15 0.15 2.35 0.15v0h0.8v1.4h-9.8v-1.4h0.7c1.1 0 1.9-0.193 2.4-0.58 0.5-0.38 0.933-1.02 1.3-1.92v0l11-28.7c0.167-0.033 0.467-0.277 0.9-0.73 0.433-0.447 0.833-0.913 1.2-1.4 0.367-0.48 0.55-0.753 0.55-0.82 0-0.067-0.017-0.117-0.05-0.15v0l0.7-0.2 12.3 32.2c0.367 0.767 0.743 1.34 1.13 1.72 0.38 0.387 0.937 0.58 1.67 0.58v0zM114.25-15.5h10.9l-5.4-14.3zM158.15-32.2l-8.3 0.5v27.2c1.933 1.133 4.567 1.7 7.9 1.7v0c3.967 0 7.467-1.083 10.5-3.25v0c1.533-1.1 2.75-2.633 3.65-4.6 0.9-1.967 1.35-4.19 1.35-6.67 0-2.487-0.49-4.697-1.47-6.63-0.987-1.933-2.263-3.483-3.83-4.65v0c-3.167-2.4-6.433-3.6-9.8-3.6zM141.45-35h7.7l12.4-0.5c4.633 0 8.293 1.5 10.98 4.5 2.68 3 4.02 7.007 4.02 12.02 0 5.02-1.923 9.437-5.77 13.25-3.853 3.82-8.363 5.73-13.53 5.73v0h-15.8v-1.5h1.7c1 0 1.65-0.183 1.95-0.55 0.3-0.367 0.45-0.917 0.45-1.65v0-27.6c0-0.767-0.157-1.327-0.47-1.68-0.32-0.347-0.963-0.52-1.93-0.52v0h-1.7zM208.85-6.9l-1.7 6.9h-26.8v-1.4h1.7c0.967 0 1.61-0.183 1.93-0.55 0.313-0.367 0.47-0.95 0.47-1.75v0-27.6c0-0.667-0.207-1.217-0.62-1.65-0.42-0.433-1.013-0.65-1.78-0.65v0h-1.7v-1.4h26.4l0.4 6.9-1.4 0.3c0-1.2-0.483-2.35-1.45-3.45-0.967-1.1-2.317-1.65-4.05-1.65v0h-9.1c-1 0-1.65 0.19-1.95 0.57-0.3 0.387-0.45 0.93-0.45 1.63v0 11.4h10c0.5 0 0.883-0.027 1.15-0.08 0.267-0.047 0.51-0.22 0.73-0.52 0.213-0.3 0.32-0.733 0.32-1.3v0-2.3h1.5v10.4h-1.5v-2.1c0-0.833-0.183-1.373-0.55-1.62-0.367-0.253-0.917-0.38-1.65-0.38v0h-10v12.9c0 0.7 0.15 1.24 0.45 1.62 0.3 0.387 0.95 0.58 1.95 0.58v0h9.5c1.767 0 3.327-0.567 4.68-1.7 1.347-1.133 2.053-2.233 2.12-3.3v0zM212.35-35h7.7l9.5-0.5c2.933 0 5.333 0.617 7.2 1.85 1.867 1.233 2.8 2.917 2.8 5.05v0c0 2.967-0.8 5.383-2.4 7.25-1.6 1.867-3.567 3.283-5.9 4.25v0l8.1 12.2c0.333 0.533 0.977 1.25 1.93 2.15 0.947 0.9 1.803 1.35 2.57 1.35v0h0.9v1.4h-7.4c0.1 0-0.217-0.5-0.95-1.5-0.733-1-1.15-1.6-1.25-1.8v0l-8.3-12.8c-0.333 0.067-1 0.1-2 0.1-1 0-1.8-0.033-2.4-0.1v0l-0.4-2c0.467 0.067 1.467 0.1 3 0.1 1.533 0 3.067-0.2 4.6-0.6 1.533-0.4 2.883-1.16 4.05-2.28 1.167-1.113 1.75-2.553 1.75-4.32v0c0-4.933-3.167-7.4-9.5-7.4v0l-5.2 0.2v28.7c0 0.5 0.033 0.883 0.1 1.15 0.067 0.267 0.283 0.523 0.65 0.77 0.367 0.253 0.917 0.38 1.65 0.38v0h1.9v1.4h-12.7v-1.4h1.6c0.733 0 1.283-0.127 1.65-0.38 0.367-0.247 0.583-0.503 0.65-0.77 0.067-0.267 0.1-0.65 0.1-1.15v0-27.6c0-0.767-0.157-1.327-0.47-1.68-0.32-0.347-0.963-0.52-1.93-0.52v0h-1.6zM260.35-1.4v1.4h-12.7v-1.4h1.7c1 0 1.65-0.2 1.95-0.6 0.3-0.4 0.45-0.967 0.45-1.7v0-27.6c0-0.733-0.15-1.3-0.45-1.7-0.3-0.4-0.95-0.6-1.95-0.6v0h-1.7v-1.4h12.7v1.4h-1.9c-1 0-1.65 0.2-1.95 0.6-0.3 0.4-0.45 0.967-0.45 1.7v0 27.6c0 0.733 0.15 1.3 0.45 1.7 0.3 0.4 0.95 0.6 1.95 0.6v0zM298.4-1.4v1.4h-12.8v-1.4h1.6c1.467 0 2.2-0.467 2.2-1.4v0c0-0.133-0.167-0.7-0.5-1.7v0l-3.4-8.9h-12.6l-3.3 8.5c0 0.067-0.117 0.473-0.35 1.22-0.233 0.753-0.35 1.27-0.35 1.55 0 0.287 0.183 0.48 0.55 0.58 0.367 0.1 1.15 0.15 2.35 0.15v0h0.8v1.4h-9.8v-1.4h0.7c1.1 0 1.9-0.193 2.4-0.58 0.5-0.38 0.933-1.02 1.3-1.92v0l11-28.7c0.167-0.033 0.467-0.277 0.9-0.73 0.433-0.447 0.833-0.913 1.2-1.4 0.367-0.48 0.55-0.753 0.55-0.82 0-0.067-0.017-0.117-0.05-0.15v0l0.7-0.2 12.3 32.2c0.367 0.767 0.743 1.34 1.13 1.72 0.38 0.387 0.937 0.58 1.67 0.58v0zM273.7-15.5h10.9l-5.4-14.3z" data-fill-palette-color="primary" fill="#000000" opacity="1"></path><path d="M12.1 24l-0.4-2 2.4 0.1c2.5 0 4.8-0.4 6.9-1.2v0c1.233-0.467 2.227-1.2 2.98-2.2 0.747-1 1.12-2.233 1.12-3.7v0c0-5.267-3.167-7.9-9.5-7.9v0l-5.2 0.2v28.8c0 0.467 0.033 0.833 0.1 1.1 0.067 0.267 0.283 0.517 0.65 0.75 0.367 0.233 0.917 0.35 1.65 0.35v0h1.9v1.4h-12.7v-1.4h1.6c0.733 0 1.283-0.117 1.65-0.35 0.367-0.233 0.583-0.483 0.65-0.75 0.067-0.267 0.1-0.633 0.1-1.1v0-27.7c0-0.767-0.157-1.327-0.47-1.68-0.32-0.347-0.963-0.52-1.93-0.52v0h-1.6v-1.5h7.7l9.5-0.5c3 0 5.417 0.65 7.25 1.95 1.833 1.3 2.75 3.123 2.75 5.47 0 2.353-0.54 4.403-1.62 6.15-1.087 1.753-2.43 3.063-4.03 3.93v0c-3.033 1.6-5.75 2.4-8.15 2.4v0c-1.4 0-2.5-0.033-3.3-0.1zM60.7 32.8l-1.7 6.9h-26.8v-1.4h1.7c0.967 0 1.61-0.183 1.93-0.55 0.313-0.367 0.47-0.95 0.47-1.75v0-27.6c0-0.667-0.207-1.217-0.62-1.65-0.42-0.433-1.013-0.65-1.78-0.65v0h-1.7v-1.4h26.4l0.4 6.9-1.4 0.3c0-1.2-0.483-2.35-1.45-3.45-0.967-1.1-2.317-1.65-4.05-1.65v0h-9.1c-1 0-1.65 0.19-1.95 0.57-0.3 0.387-0.45 0.93-0.45 1.63v0 11.4h10c0.5 0 0.883-0.027 1.15-0.08 0.267-0.047 0.51-0.22 0.73-0.52 0.213-0.3 0.32-0.733 0.32-1.3v0-2.3h1.5v10.4h-1.5v-2.1c0-0.833-0.183-1.373-0.55-1.62-0.367-0.253-0.917-0.38-1.65-0.38v0h-10v12.9c0 0.7 0.15 1.24 0.45 1.62 0.3 0.387 0.95 0.58 1.95 0.58v0h9.5c1.767 0 3.327-0.567 4.68-1.7 1.347-1.133 2.053-2.233 2.12-3.3v0zM80.9 7.5l-8.3 0.5v27.2c1.933 1.133 4.567 1.7 7.9 1.7v0c3.967 0 7.467-1.083 10.5-3.25v0c1.533-1.1 2.75-2.633 3.65-4.6 0.9-1.967 1.35-4.19 1.35-6.67 0-2.487-0.49-4.697-1.47-6.63-0.987-1.933-2.263-3.483-3.83-4.65v0c-3.167-2.4-6.433-3.6-9.8-3.6zM64.2 4.7h7.7l12.4-0.5c4.633 0 8.293 1.5 10.98 4.5 2.68 3 4.02 7.007 4.02 12.02 0 5.02-1.923 9.437-5.77 13.25-3.853 3.82-8.363 5.73-13.53 5.73v0h-15.8v-1.5h1.7c1 0 1.65-0.183 1.95-0.55 0.3-0.367 0.45-0.917 0.45-1.65v0-27.6c0-0.767-0.157-1.327-0.47-1.68-0.32-0.347-0.963-0.52-1.93-0.52v0h-1.7zM103.1 4.7h7.7l9.5-0.5c2.933 0 5.333 0.617 7.2 1.85 1.867 1.233 2.8 2.917 2.8 5.05v0c0 2.967-0.8 5.383-2.4 7.25-1.6 1.867-3.567 3.283-5.9 4.25v0l8.1 12.2c0.333 0.533 0.977 1.25 1.93 2.15 0.947 0.9 1.803 1.35 2.57 1.35v0h0.9v1.4h-7.4c0.1 0-0.217-0.5-0.95-1.5-0.733-1-1.15-1.6-1.25-1.8v0l-8.3-12.8c-0.333 0.067-1 0.1-2 0.1-1 0-1.8-0.033-2.4-0.1v0l-0.4-2c0.467 0.067 1.467 0.1 3 0.1 1.533 0 3.067-0.2 4.6-0.6 1.533-0.4 2.883-1.16 4.05-2.28 1.167-1.113 1.75-2.553 1.75-4.32v0c0-4.933-3.167-7.4-9.5-7.4v0l-5.2 0.2v28.7c0 0.5 0.033 0.883 0.1 1.15 0.067 0.267 0.283 0.523 0.65 0.77 0.367 0.253 0.917 0.38 1.65 0.38v0h1.9v1.4h-12.7v-1.4h1.6c0.733 0 1.283-0.127 1.65-0.38 0.367-0.247 0.583-0.503 0.65-0.77 0.067-0.267 0.1-0.65 0.1-1.15v0-27.6c0-0.767-0.157-1.327-0.47-1.68-0.32-0.347-0.963-0.52-1.93-0.52v0h-1.6zM151.1 38.3v1.4h-12.7v-1.4h1.7c1 0 1.65-0.2 1.95-0.6 0.3-0.4 0.45-0.967 0.45-1.7v0-27.6c0-0.733-0.15-1.3-0.45-1.7-0.3-0.4-0.95-0.6-1.95-0.6v0h-1.7v-1.4h12.7v1.4h-1.9c-1 0-1.65 0.2-1.95 0.6-0.3 0.4-0.45 0.967-0.45 1.7v0 27.6c0 0.733 0.15 1.3 0.45 1.7 0.3 0.4 0.95 0.6 1.95 0.6v0zM184.2 40.5v0l-22.1-29.6v25.1c0 1.467 1.033 2.2 3.1 2.2v0h1.9v1.5h-12v-1.5h1.6c2.067 0 3.1-0.733 3.1-2.2v0-27.6c0-1.467-1.033-2.2-3.1-2.2v0h-1.6v-1.5h7.9l20.6 27.7v-24c0-1.467-1-2.2-3-2.2v0h-1.7v-1.5h12v1.5h-1.9c-2.067 0-3.1 0.733-3.1 2.2v0 31.1c-0.367 0-0.76 0.16-1.18 0.48-0.413 0.313-0.587 0.487-0.52 0.52z" data-fill-palette-color="primary" fill="#000000" opacity="1"></path></g></svg></g></svg></g><g transform="matrix(1,0,0,1,0,117.51372809846153)"><svg viewBox="0 0 232.209792 15.27975235240358" height="15.27975235240358" width="232.209792"><g transform="matrix(1,0,0,1,0,0)"><svg width="232.209792" viewBox="2.049999952316284 -35.5 547.030029296875 36" height="15.27975235240358" data-palette-color="#f9cc0b"><path d="M2.05 0L2.05-35 10.15-35Q14.25-35 16.3-32.8 18.35-30.6 18.35-26.35L18.35-26.35 18.35-22.9Q18.35-18.65 16.3-16.45 14.25-14.25 10.15-14.25L10.15-14.25 7.55-14.25 7.55 0 2.05 0ZM7.55-19.25L10.15-19.25Q11.5-19.25 12.18-20 12.85-20.75 12.85-22.55L12.85-22.55 12.85-26.7Q12.85-28.5 12.18-29.25 11.5-30 10.15-30L10.15-30 7.55-30 7.55-19.25ZM18.15 0L23.85-35 31.3-35 37 0 31.5 0 30.5-6.95 30.5-6.85 24.25-6.85 23.25 0 18.15 0ZM24.9-11.6L29.85-11.6 27.4-28.9 27.3-28.9 24.9-11.6ZM39.64 0L39.64-35 46.55-35 51.89-14.05 51.99-14.05 51.99-35 56.89-35 56.89 0 51.24 0 44.64-25.55 44.55-25.55 44.55 0 39.64 0ZM59.54 0L65.24-35 72.69-35 78.39 0 72.89 0 71.89-6.95 71.89-6.85 65.64-6.85 64.64 0 59.54 0ZM66.29-11.6L71.24-11.6 68.79-28.9 68.69-28.9 66.29-11.6ZM81.04 0L81.04-35 89.44-35Q93.54-35 95.59-32.8 97.64-30.6 97.64-26.35L97.64-26.35 97.64-8.65Q97.64-4.4 95.59-2.2 93.54 0 89.44 0L89.44 0 81.04 0ZM86.54-5L89.34-5Q90.69-5 91.42-5.8 92.14-6.6 92.14-8.4L92.14-8.4 92.14-26.6Q92.14-28.4 91.42-29.2 90.69-30 89.34-30L89.34-30 86.54-30 86.54-5ZM101.34 0L101.34-35 116.34-35 116.34-30 106.84-30 106.84-20.75 114.39-20.75 114.39-15.75 106.84-15.75 106.84-5 116.34-5 116.34 0 101.34 0ZM119.49 0L119.49-35 127.64-35Q131.89-35 133.84-33.02 135.79-31.05 135.79-26.95L135.79-26.95 135.79-24.8Q135.79-19.35 132.19-17.9L132.19-17.9 132.19-17.8Q134.19-17.2 135.01-15.35 135.84-13.5 135.84-10.4L135.84-10.4 135.84-4.25Q135.84-2.75 135.94-1.83 136.04-0.9 136.44 0L136.44 0 130.84 0Q130.54-0.85 130.44-1.6 130.34-2.35 130.34-4.3L130.34-4.3 130.34-10.7Q130.34-13.1 129.56-14.05 128.79-15 126.89-15L126.89-15 124.99-15 124.99 0 119.49 0ZM124.99-20L126.99-20Q128.64-20 129.46-20.85 130.29-21.7 130.29-23.7L130.29-23.7 130.29-26.4Q130.29-28.3 129.61-29.15 128.94-30 127.49-30L127.49-30 124.99-30 124.99-20ZM147.58 0.5Q143.53 0.5 141.38-1.8 139.23-4.1 139.23-8.3L139.23-8.3 139.23-26.7Q139.23-30.9 141.38-33.2 143.53-35.5 147.58-35.5L147.58-35.5Q151.63-35.5 153.78-33.2 155.93-30.9 155.93-26.7L155.93-26.7 155.93-8.3Q155.93-4.1 153.78-1.8 151.63 0.5 147.58 0.5L147.58 0.5ZM147.58-4.5Q150.43-4.5 150.43-7.95L150.43-7.95 150.43-27.05Q150.43-30.5 147.58-30.5L147.58-30.5Q144.73-30.5 144.73-27.05L144.73-27.05 144.73-7.95Q144.73-4.5 147.58-4.5L147.58-4.5ZM166.78 0.5Q162.78 0.5 160.73-1.78 158.68-4.05 158.68-8.3L158.68-8.3 158.68-10.3 163.88-10.3 163.88-7.9Q163.88-4.5 166.73-4.5L166.73-4.5Q168.13-4.5 168.86-5.33 169.58-6.15 169.58-8L169.58-8Q169.58-10.2 168.58-11.88 167.58-13.55 164.88-15.9L164.88-15.9Q161.48-18.9 160.13-21.33 158.78-23.75 158.78-26.8L158.78-26.8Q158.78-30.95 160.88-33.23 162.98-35.5 166.98-35.5L166.98-35.5Q170.93-35.5 172.96-33.23 174.98-30.95 174.98-26.7L174.98-26.7 174.98-25.25 169.78-25.25 169.78-27.05Q169.78-28.85 169.08-29.68 168.38-30.5 167.03-30.5L167.03-30.5Q164.28-30.5 164.28-27.15L164.28-27.15Q164.28-25.25 165.31-23.6 166.33-21.95 169.03-19.6L169.03-19.6Q172.48-16.6 173.78-14.15 175.08-11.7 175.08-8.4L175.08-8.4Q175.08-4.1 172.96-1.8 170.83 0.5 166.78 0.5L166.78 0.5ZM184.78 0L190.48-35 197.93-35 203.63 0 198.13 0 197.13-6.95 197.13-6.85 190.88-6.85 189.88 0 184.78 0ZM191.53-11.6L196.48-11.6 194.03-28.9 193.93-28.9 191.53-11.6ZM206.27 0L206.27-35 214.42-35Q218.67-35 220.62-33.02 222.57-31.05 222.57-26.95L222.57-26.95 222.57-24.8Q222.57-19.35 218.97-17.9L218.97-17.9 218.97-17.8Q220.97-17.2 221.8-15.35 222.62-13.5 222.62-10.4L222.62-10.4 222.62-4.25Q222.62-2.75 222.72-1.83 222.82-0.9 223.22 0L223.22 0 217.62 0Q217.32-0.85 217.22-1.6 217.12-2.35 217.12-4.3L217.12-4.3 217.12-10.7Q217.12-13.1 216.35-14.05 215.57-15 213.67-15L213.67-15 211.77-15 211.77 0 206.27 0ZM211.77-20L213.77-20Q215.42-20 216.25-20.85 217.07-21.7 217.07-23.7L217.07-23.7 217.07-26.4Q217.07-28.3 216.4-29.15 215.72-30 214.27-30L214.27-30 211.77-30 211.77-20ZM230.62 0L230.62-30 224.87-30 224.87-35 241.87-35 241.87-30 236.12-30 236.12 0 230.62 0ZM244.52 0L244.52-35 259.52-35 259.52-30 250.02-30 250.02-20.75 257.57-20.75 257.57-15.75 250.02-15.75 250.02-5 259.52-5 259.52 0 244.52 0ZM269.92 0.5Q265.92 0.5 263.87-1.78 261.82-4.05 261.82-8.3L261.82-8.3 261.82-10.3 267.02-10.3 267.02-7.9Q267.02-4.5 269.87-4.5L269.87-4.5Q271.27-4.5 271.99-5.33 272.72-6.15 272.72-8L272.72-8Q272.72-10.2 271.72-11.88 270.72-13.55 268.02-15.9L268.02-15.9Q264.62-18.9 263.27-21.33 261.92-23.75 261.92-26.8L261.92-26.8Q261.92-30.95 264.02-33.23 266.12-35.5 270.12-35.5L270.12-35.5Q274.07-35.5 276.09-33.23 278.12-30.95 278.12-26.7L278.12-26.7 278.12-25.25 272.92-25.25 272.92-27.05Q272.92-28.85 272.22-29.68 271.52-30.5 270.17-30.5L270.17-30.5Q267.42-30.5 267.42-27.15L267.42-27.15Q267.42-25.25 268.44-23.6 269.47-21.95 272.17-19.6L272.17-19.6Q275.62-16.6 276.92-14.15 278.22-11.7 278.22-8.4L278.22-8.4Q278.22-4.1 276.09-1.8 273.97 0.5 269.92 0.5L269.92 0.5ZM279.76 0L285.46-35 292.91-35 298.61 0 293.11 0 292.11-6.95 292.11-6.85 285.86-6.85 284.86 0 279.76 0ZM286.51-11.6L291.46-11.6 289.01-28.9 288.91-28.9 286.51-11.6ZM301.26 0L301.26-35 308.16-35 313.51-14.05 313.61-14.05 313.61-35 318.51-35 318.51 0 312.86 0 306.26-25.55 306.16-25.55 306.16 0 301.26 0ZM330.56 0.5Q326.51 0.5 324.36-1.8 322.21-4.1 322.21-8.3L322.21-8.3 322.21-26.7Q322.21-30.9 324.36-33.2 326.51-35.5 330.56-35.5L330.56-35.5Q334.61-35.5 336.76-33.2 338.91-30.9 338.91-26.7L338.91-26.7 338.91-8.3Q338.91-4.1 336.76-1.8 334.61 0.5 330.56 0.5L330.56 0.5ZM330.56-4.5Q333.41-4.5 333.41-7.95L333.41-7.95 333.41-27.05Q333.41-30.5 330.56-30.5L330.56-30.5Q327.71-30.5 327.71-27.05L327.71-27.05 327.71-7.95Q327.71-4.5 330.56-4.5L330.56-4.5ZM349.76 0.5Q345.76 0.5 343.71-1.78 341.66-4.05 341.66-8.3L341.66-8.3 341.66-10.3 346.86-10.3 346.86-7.9Q346.86-4.5 349.71-4.5L349.71-4.5Q351.11-4.5 351.83-5.33 352.56-6.15 352.56-8L352.56-8Q352.56-10.2 351.56-11.88 350.56-13.55 347.86-15.9L347.86-15.9Q344.46-18.9 343.11-21.33 341.76-23.75 341.76-26.8L341.76-26.8Q341.76-30.95 343.86-33.23 345.96-35.5 349.96-35.5L349.96-35.5Q353.91-35.5 355.93-33.23 357.96-30.95 357.96-26.7L357.96-26.7 357.96-25.25 352.76-25.25 352.76-27.05Q352.76-28.85 352.06-29.68 351.36-30.5 350.01-30.5L350.01-30.5Q347.26-30.5 347.26-27.15L347.26-27.15Q347.26-25.25 348.28-23.6 349.31-21.95 352.01-19.6L352.01-19.6Q355.46-16.6 356.76-14.15 358.06-11.7 358.06-8.4L358.06-8.4Q358.06-4.1 355.93-1.8 353.81 0.5 349.76 0.5L349.76 0.5ZM369.2 0L369.2-35 377.6-35Q381.7-35 383.75-32.8 385.8-30.6 385.8-26.35L385.8-26.35 385.8-8.65Q385.8-4.4 383.75-2.2 381.7 0 377.6 0L377.6 0 369.2 0ZM374.7-5L377.5-5Q378.85-5 379.58-5.8 380.3-6.6 380.3-8.4L380.3-8.4 380.3-26.6Q380.3-28.4 379.58-29.2 378.85-30 377.5-30L377.5-30 374.7-30 374.7-5ZM389.5 0L389.5-35 404.5-35 404.5-30 395-30 395-20.75 402.55-20.75 402.55-15.75 395-15.75 395-5 404.5-5 404.5 0 389.5 0ZM414.9 0.5Q410.9 0.5 408.85-1.78 406.8-4.05 406.8-8.3L406.8-8.3 406.8-10.3 412-10.3 412-7.9Q412-4.5 414.85-4.5L414.85-4.5Q416.25-4.5 416.97-5.33 417.7-6.15 417.7-8L417.7-8Q417.7-10.2 416.7-11.88 415.7-13.55 413-15.9L413-15.9Q409.6-18.9 408.25-21.33 406.9-23.75 406.9-26.8L406.9-26.8Q406.9-30.95 409-33.23 411.1-35.5 415.1-35.5L415.1-35.5Q419.05-35.5 421.07-33.23 423.1-30.95 423.1-26.7L423.1-26.7 423.1-25.25 417.9-25.25 417.9-27.05Q417.9-28.85 417.2-29.68 416.5-30.5 415.15-30.5L415.15-30.5Q412.4-30.5 412.4-27.15L412.4-27.15Q412.4-25.25 413.42-23.6 414.45-21.95 417.15-19.6L417.15-19.6Q420.6-16.6 421.9-14.15 423.2-11.7 423.2-8.4L423.2-8.4Q423.2-4.1 421.07-1.8 418.95 0.5 414.9 0.5L414.9 0.5ZM426.34 0L426.34-35 434.74-35Q438.84-35 440.89-32.8 442.94-30.6 442.94-26.35L442.94-26.35 442.94-8.65Q442.94-4.4 440.89-2.2 438.84 0 434.74 0L434.74 0 426.34 0ZM431.84-5L434.64-5Q435.99-5 436.72-5.8 437.44-6.6 437.44-8.4L437.44-8.4 437.44-26.6Q437.44-28.4 436.72-29.2 435.99-30 434.64-30L434.64-30 431.84-30 431.84-5ZM446.64 0L446.64-35 461.64-35 461.64-30 452.14-30 452.14-20.75 459.69-20.75 459.69-15.75 452.14-15.75 452.14-5 461.64-5 461.64 0 446.64 0ZM480.49 0L480.49-26.7 474.74-26.7 474.74-30.6Q477.09-30.6 478.51-31 479.94-31.4 480.79-32.33 481.64-33.25 482.29-35L482.29-35 485.99-35 485.99 0 480.49 0ZM500.73 0.5Q496.58 0.5 494.36-1.73 492.13-3.95 492.13-8.15L492.13-8.15 492.13-11.25Q492.13-13.85 492.98-15.63 493.83-17.4 495.73-18.4L495.73-18.4 495.73-18.5Q493.98-19.45 493.16-21.13 492.33-22.8 492.33-25.4L492.33-25.4 492.33-26.85Q492.33-31.05 494.51-33.27 496.68-35.5 500.73-35.5L500.73-35.5Q504.78-35.5 506.96-33.27 509.13-31.05 509.13-26.85L509.13-26.85 509.13-25.4Q509.13-20.4 505.73-18.5L505.73-18.5 505.73-18.4Q507.63-17.4 508.48-15.63 509.33-13.85 509.33-11.25L509.33-11.25 509.33-8.15Q509.33-3.95 507.11-1.73 504.88 0.5 500.73 0.5L500.73 0.5ZM500.73-20.75Q503.63-20.75 503.63-24.25L503.63-24.25 503.63-27Q503.63-30.5 500.73-30.5L500.73-30.5Q497.83-30.5 497.83-27L497.83-27 497.83-24.25Q497.83-20.75 500.73-20.75L500.73-20.75ZM500.73-4.5Q503.83-4.5 503.83-8.45L503.83-8.45 503.83-11.8Q503.83-15.75 500.73-15.75L500.73-15.75Q497.63-15.75 497.63-11.8L497.63-11.8 497.63-8.45Q497.63-4.5 500.73-4.5L500.73-4.5ZM520.73 0.5Q516.68 0.5 514.53-1.8 512.38-4.1 512.38-8.3L512.38-8.3 512.38-26.7Q512.38-30.9 514.53-33.2 516.68-35.5 520.73-35.5L520.73-35.5Q524.78-35.5 526.93-33.2 529.08-30.9 529.08-26.7L529.08-26.7 529.08-8.3Q529.08-4.1 526.93-1.8 524.78 0.5 520.73 0.5L520.73 0.5ZM520.73-4.5Q523.58-4.5 523.58-7.95L523.58-7.95 523.58-27.05Q523.58-30.5 520.73-30.5L520.73-30.5Q517.88-30.5 517.88-27.05L517.88-27.05 517.88-7.95Q517.88-4.5 520.73-4.5L520.73-4.5ZM532.68 0L532.68-3.8Q532.68-7.55 533.88-10.23 535.08-12.9 538.18-16.15L538.18-16.15Q541.23-19.4 542.4-21.7 543.58-24 543.58-26.5L543.58-26.5Q543.58-28.75 542.85-29.63 542.13-30.5 540.73-30.5L540.73-30.5Q537.88-30.5 537.88-27.05L537.88-27.05 537.88-23.3 532.68-23.3 532.68-26.7Q532.68-30.95 534.78-33.23 536.88-35.5 540.88-35.5L540.88-35.5Q544.88-35.5 546.98-33.23 549.08-30.95 549.08-26.7L549.08-26.7Q549.08-23.5 547.55-20.45 546.03-17.4 542.28-13.45L542.28-13.45Q539.83-10.85 538.98-9.22 538.13-7.6 538.13-5.75L538.13-5.75 538.13-5 548.58-5 548.58 0 532.68 0Z" opacity="1" transform="matrix(1,0,0,1,0,0)" fill="#000000" class="undefined-text-1" data-fill-palette-color="secondary" id="text-1"></path></svg></g></svg></g></svg></g></svg></g><g transform="matrix(1,0,0,1,0,0.33198370112715736)"><svg viewBox="0 0 204.66578696854296 132.7934804508651" height="132.7934804508651" width="204.66578696854296"><g><svg xmlns="http://www.w3.org/2000/svg" xmlns:xlink="http://www.w3.org/1999/xlink" version="1.1" x="0" y="0" viewBox="5.475960731506348 16.795879364013672 89.04804229736328 57.77711868286133" enable-background="new 0 0 100 100" xml:space="preserve" height="132.7934804508651" width="204.66578696854296" class="icon-icon-0" data-fill-palette-color="accent" id="icon-0"><path d="M16.758 54.077c6.592-1.525 8.507-8.359 3.511-14.383 6.872-2.731 4.739-12.062 0.342-14.778-1.19-0.724 1.608-4.779 1.608-4.779 6.203-4.023 8.091-4.04 15.225-2.017l0.932 26.392c0.085 1.392 0.77 2.401 1.702 2.401 0.932 0 1.609-1.009 1.698-2.401l0.93-26.392c7.14-2.022 13.426-1.143 19.629 2.899l2.202 17.316c0.18 1.242 0.604 2.017 1.023 2.017 0.424 0 0.852-1.014 0.852-2.414l0.767-15.4c18.859 1.77 27.345 17.3 27.345 29.926 0 16.044-4.239 22.109-12.311 22.109H40.078 5.504c0 0-0.517-13.813 2.889-11.881C14.345 66.035 20.445 61.97 16.758 54.077z" fill="#000000" data-fill-palette-color="accent"></path></svg></g></svg></g></svg></g></svg><rect width="395.5199999999999" height="84.08952709214313" fill="none" stroke="none" visibility="hidden"></rect></g></svg></g></svg>